<?xml version="1.0" standalone="no"?>
<!DOCTYPE svg PUBLIC "-//W3C//DTD SVG 20010904//EN"
 "http://www.w3.org/TR/2001/REC-SVG-20010904/DTD/svg10.dtd">
<svg version="1.0" xmlns="http://www.w3.org/2000/svg"
 width="700.000000pt" height="700.000000pt" viewBox="0 0 700.000000 700.000000"
 preserveAspectRatio="xMidYMid meet">
<metadata>
Created by potrace 1.14, written by Peter Selinger 2001-2017
</metadata>
<g transform="translate(0.000000,700.000000) scale(0.100000,-0.100000)"
fill="#000000" stroke="none">
<path d="M3395 6773 c-525 -14 -1093 -177 -1548 -447 -392 -232 -746 -555
-1012 -925 -330 -458 -535 -1003 -595 -1586 -15 -142 -15 -488 0 -630 66 -635
292 -1200 684 -1705 101 -131 348 -385 479 -493 436 -362 957 -607 1501 -707
369 -68 792 -69 1171 -4 542 93 1078 343 1521 711 129 106 359 341 464 473
427 537 677 1199 709 1878 39 832 -223 1615 -756 2259 -108 131 -362 377 -493
479 -620 481 -1339 717 -2125 697z m310 -2508 c130 -36 236 -97 344 -199 273
-258 320 -684 111 -999 -284 -429 -886 -480 -1235 -105 -88 94 -137 177 -177
298 -30 89 -32 104 -32 240 0 136 2 151 32 240 43 131 92 210 192 311 123 124
263 200 421 228 75 14 272 5 344 -14z m-1137 -926 c40 -250 189 -481 405 -628
72 -49 201 -107 297 -133 122 -32 337 -33 460 0 270 72 494 252 617 497 40 79
80 207 89 283 l7 62 1089 0 1090 0 -6 -82 c-40 -493 -130 -831 -327 -1228 -90
-181 -235 -410 -355 -560 -92 -115 -328 -355 -442 -448 -804 -662 -1846 -882
-2845 -602 -365 102 -753 301 -1077 550 -125 97 -436 409 -531 535 -400 526
-608 1083 -654 1743 l-7 92 1089 0 1089 0 12 -81z"/>
<path d="M3417 3989 c-124 -18 -265 -112 -337 -226 -96 -151 -97 -374 -2 -524
171 -269 551 -312 772 -87 156 158 188 403 79 595 -71 125 -213 222 -355 243
-77 11 -77 11 -157 -1z m228 -183 c66 -33 129 -96 163 -166 23 -47 27 -68 27
-140 0 -73 -4 -93 -28 -142 -36 -74 -96 -134 -165 -166 -48 -23 -71 -27 -142
-27 -103 0 -170 27 -239 96 -69 69 -96 136 -96 239 0 71 4 94 26 140 43 89
126 161 217 187 69 19 173 10 237 -21z"/>
</g>
</svg>
